<svg width="45" height="45" viewBox="0 0 45 45" fill="none" xmlns="http://www.w3.org/2000/svg">
<circle cx="22.5" cy="15" r="6.5" stroke="#201A19" stroke-width="2" stroke-linecap="round"/>
<path d="M27.8696 14.5625C28.4829 13.5002 29.4931 12.7251 30.678 12.4076C31.8628 12.0901 33.1252 12.2563 34.1875 12.8696C35.2498 13.4829 36.0249 14.4931 36.3424 15.678C36.6599 16.8628 36.4937 18.1252 35.8804 19.1875C35.2671 20.2498 34.2569 21.0249 33.072 21.3424C31.8872 21.6599 30.6248 21.4937 29.5625 20.8804C28.5002 20.2671 27.7251 19.2569 27.4076 18.072C27.0901 16.8872 27.2563 15.6248 27.8696 14.5625L27.8696 14.5625Z" stroke="#201A19" stroke-width="2"/>
<path d="M9.11963 14.5625C9.73295 13.5002 10.7431 12.7251 11.928 12.4076C13.1128 12.0901 14.3752 12.2563 15.4375 12.8696C16.4998 13.4829 17.2749 14.4931 17.5924 15.678C17.9099 16.8628 17.7437 18.1252 17.1304 19.1875C16.5171 20.2498 15.5069 21.0249 14.322 21.3424C13.1372 21.6599 11.8748 21.4937 10.8125 20.8804C9.75021 20.2671 8.97507 19.2569 8.65759 18.072C8.34012 16.8872 8.50632 15.6248 9.11963 14.5625L9.11963 14.5625Z" stroke="#201A19" stroke-width="2"/>
<path d="M31.6529 33.75L30.6726 33.9474L30.8342 34.75H31.6529V33.75ZM39.1435 32.6442L38.1768 32.9001V32.9001L39.1435 32.6442ZM27.7139 27.5823L27.109 26.7859L25.9525 27.6644L27.1857 28.4314L27.7139 27.5823ZM38.242 32.75H31.6529V34.75H38.242V32.75ZM38.1768 32.9001C38.1738 32.8889 38.1713 32.8655 38.1779 32.8368C38.1842 32.8098 38.1959 32.7893 38.2071 32.7758C38.2293 32.7491 38.2482 32.75 38.242 32.75V34.75C39.4165 34.75 40.4528 33.6825 40.1102 32.3883L38.1768 32.9001ZM31.8748 27.25C34.0256 27.25 35.4377 28.1633 36.4023 29.3089C37.3942 30.487 37.9188 31.9256 38.1768 32.9001L40.1102 32.3883C39.816 31.2768 39.1931 29.5183 37.9322 28.0208C36.644 26.4908 34.6979 25.25 31.8748 25.25V27.25ZM28.3187 28.3786C29.1894 27.7173 30.3344 27.25 31.8748 27.25V25.25C29.8905 25.25 28.322 25.8646 27.109 26.7859L28.3187 28.3786ZM27.1857 28.4314C29.4357 29.8308 30.3268 32.2305 30.6726 33.9474L32.6332 33.5526C32.2437 31.6184 31.1813 28.5612 28.242 26.7331L27.1857 28.4314Z" fill="#201A19"/>
<path d="M17.286 27.5822L17.8142 28.4314L19.0475 27.6644L17.8909 26.7859L17.286 27.5822ZM5.85642 32.6442L4.88973 32.3882L5.85642 32.6442ZM13.347 33.75V34.75H14.1657L14.3273 33.9474L13.347 33.75ZM13.1251 27.25C14.6656 27.25 15.8105 27.7173 16.6812 28.3786L17.8909 26.7859C16.6779 25.8646 15.1095 25.25 13.1251 25.25V27.25ZM6.82312 32.9001C7.08111 31.9256 7.60572 30.487 8.59763 29.3089C9.56223 28.1633 10.9743 27.25 13.1251 27.25V25.25C10.3021 25.25 8.35595 26.4908 7.06772 28.0208C5.8068 29.5183 5.18397 31.2768 4.88973 32.3882L6.82312 32.9001ZM6.75787 32.75C6.75173 32.75 6.7706 32.7491 6.79281 32.7758C6.804 32.7893 6.81575 32.8098 6.82199 32.8368C6.82863 32.8655 6.82607 32.8889 6.82312 32.9001L4.88973 32.3882C4.5471 33.6824 5.58345 34.75 6.75787 34.75V32.75ZM13.347 32.75H6.75787V34.75H13.347V32.75ZM14.3273 33.9474C14.6731 32.2305 15.5642 29.8307 17.8142 28.4314L16.7579 26.7331C13.8186 28.5611 12.7562 31.6184 12.3667 33.5526L14.3273 33.9474Z" fill="#201A19"/>
<path d="M22.5 26.25C29.982 26.25 31.4928 32.2212 31.7978 34.6327C31.8671 35.1806 31.4273 35.625 30.875 35.625H14.125C13.5727 35.625 13.1329 35.1806 13.2022 34.6327C13.5072 32.2212 15.018 26.25 22.5 26.25Z" stroke="#201A19" stroke-width="2" stroke-linecap="round"/>
</svg>
