<svg width="49" height="49" viewBox="0 0 49 49" fill="none" xmlns="http://www.w3.org/2000/svg">
<path d="M7.125 14.125C7.125 12.2111 7.12712 10.8763 7.26253 9.86916C7.39407 8.89079 7.63466 8.3727 8.00368 8.00368C8.3727 7.63466 8.89079 7.39407 9.86916 7.26253C10.8763 7.12712 12.2111 7.125 14.125 7.125H34.875C36.7889 7.125 38.1237 7.12712 39.1308 7.26253C40.1092 7.39407 40.6273 7.63466 40.9963 8.00368C41.3653 8.3727 41.6059 8.89079 41.7375 9.86916C41.8729 10.8763 41.875 12.2111 41.875 14.125V34.875C41.875 36.7889 41.8729 38.1237 41.7375 39.1308C41.6059 40.1092 41.3653 40.6273 40.9963 40.9963C40.6273 41.3653 40.1092 41.6059 39.1308 41.7375C38.1237 41.8729 36.7889 41.875 34.875 41.875H14.125C12.2111 41.875 10.8763 41.8729 9.86916 41.7375C8.89079 41.6059 8.3727 41.3653 8.00368 40.9963C7.63466 40.6273 7.39407 40.1092 7.26253 39.1308C7.12712 38.1237 7.125 36.7889 7.125 34.875V14.125Z" stroke="#201A19" stroke-width="2"/>
<path d="M24.5 16.3335L24.5 32.6668" stroke="#201A19" stroke-width="2" stroke-linejoin="round"/>
<path d="M32.667 24.5L16.3337 24.5" stroke="#201A19" stroke-width="2" stroke-linejoin="round"/>
</svg>
