<svg width="25" height="23" viewBox="0 0 25 23" fill="none" xmlns="http://www.w3.org/2000/svg">
<path d="M12.4453 22.6501C11.0448 22.6501 9.73293 22.384 8.50977 21.8518C7.28662 21.3196 6.22219 20.6006 5.31649 19.6949C4.4108 18.7892 3.69184 17.7248 3.15963 16.5016C2.62742 15.2785 2.36131 13.9666 2.36131 12.5661C2.36131 11.1655 2.62742 9.85366 3.15963 8.6305C3.69184 7.40734 4.4108 6.34292 5.31649 5.43722C6.22219 4.53153 7.28662 3.81257 8.50977 3.28036C9.73293 2.74815 11.0448 2.48204 12.4453 2.48204C13.8459 2.48204 15.1578 2.74815 16.3809 3.28036C17.6041 3.81257 18.6685 4.53153 19.5742 5.43722C20.4799 6.34292 21.1988 7.40734 21.7311 8.6305C22.2633 9.85366 22.5294 11.1655 22.5294 12.5661C22.5294 13.9666 22.2633 15.2785 21.7311 16.5016C21.1988 17.7248 20.4799 18.7892 19.5742 19.6949C18.6685 20.6006 17.6041 21.3196 16.3809 21.8518C15.1578 22.384 13.8459 22.6501 12.4453 22.6501ZM15.5826 17.272L17.1512 15.7033L13.5658 12.1179V6.96383H11.3249V13.0143L15.5826 17.272ZM5.27448 0.633301L6.84311 2.20193L2.0812 6.96383L0.512573 5.39521L5.27448 0.633301ZM19.6162 0.633301L24.3781 5.39521L22.8095 6.96383L18.0476 2.20193L19.6162 0.633301ZM12.4453 20.4092C14.6302 20.4092 16.4836 19.6482 18.0056 18.1263C19.5275 16.6044 20.2885 14.7509 20.2885 12.5661C20.2885 10.3812 19.5275 8.52779 18.0056 7.00585C16.4836 5.48391 14.6302 4.72294 12.4453 4.72294C10.2605 4.72294 8.40706 5.48391 6.88512 7.00585C5.36318 8.52779 4.60221 10.3812 4.60221 12.5661C4.60221 14.7509 5.36318 16.6044 6.88512 18.1263C8.40706 19.6482 10.2605 20.4092 12.4453 20.4092Z" fill="#410001"/>
</svg>
