<svg width="241" height="241" viewBox="0 0 241 241" fill="none" xmlns="http://www.w3.org/2000/svg">
<mask id="mask0_643_1087" style="mask-type:alpha" maskUnits="userSpaceOnUse" x="0" y="0" width="241" height="241">
<rect width="241" height="241" fill="#D9D9D9"/>
</mask>
<g mask="url(#mask0_643_1087)">
<path d="M20.0837 210.875C17.2385 210.875 14.8536 209.913 12.929 207.988C11.0043 206.063 10.042 203.678 10.042 200.833C10.042 197.988 11.0043 195.603 12.929 193.679C14.8536 191.754 17.2385 190.792 20.0837 190.792H220.917C223.762 190.792 226.147 191.754 228.072 193.679C229.996 195.603 230.959 197.988 230.959 200.833C230.959 203.678 229.996 206.063 228.072 207.988C226.147 209.913 223.762 210.875 220.917 210.875H20.0837ZM40.167 180.75C34.6441 180.75 29.9161 178.784 25.9831 174.851C22.0502 170.918 20.0837 166.19 20.0837 160.667V50.2083C20.0837 44.6854 22.0502 39.9575 25.9831 36.0245C29.9161 32.0915 34.6441 30.125 40.167 30.125H200.834C206.357 30.125 211.085 32.0915 215.018 36.0245C218.95 39.9575 220.917 44.6854 220.917 50.2083V160.667C220.917 166.19 218.95 170.918 215.018 174.851C211.085 178.784 206.357 180.75 200.834 180.75H40.167ZM40.167 160.667H200.834V50.2083H40.167V160.667Z" fill="#EDE0DE"/>
</g>
</svg>
