<svg width="241" height="241" viewBox="0 0 241 241" fill="none" xmlns="http://www.w3.org/2000/svg">
<mask id="mask0_366_305" style="mask-type:alpha" maskUnits="userSpaceOnUse" x="0" y="0" width="241" height="241">
<rect width="241" height="241" fill="#D9D9D9"/>
</mask>
<g mask="url(#mask0_366_305)">
<path d="M20.0837 211.138C17.2385 211.138 14.8536 210.176 12.929 208.251C11.0043 206.325 10.042 203.94 10.042 201.094C10.042 198.248 11.0043 195.862 12.929 193.937C14.8536 192.012 17.2385 191.049 20.0837 191.049H220.917C223.762 191.049 226.147 192.012 228.072 193.937C229.996 195.862 230.959 198.248 230.959 201.094C230.959 203.94 229.996 206.325 228.072 208.251C226.147 210.176 223.762 211.138 220.917 211.138H20.0837ZM40.167 181.005C34.6441 181.005 29.9161 179.038 25.9831 175.103C22.0502 171.169 20.0837 166.44 20.0837 160.915V50.4247C20.0837 44.9001 22.0502 40.1708 25.9831 36.2367C29.9161 32.3025 34.6441 30.3354 40.167 30.3354H200.834C206.357 30.3354 211.085 32.3025 215.018 36.2367C218.95 40.1708 220.917 44.9001 220.917 50.4247V160.915C220.917 166.44 218.95 171.169 215.018 175.103C211.085 179.038 206.357 181.005 200.834 181.005H40.167ZM40.167 160.915H200.834V50.4247H40.167V160.915Z" fill="#410001"/>
</g>
</svg>
