<svg width="1231" height="1144" viewBox="0 0 1231 1144" fill="none" xmlns="http://www.w3.org/2000/svg">
<path d="M824.917 790.132C823.432 782.111 831.659 775.782 839.032 779.274L1130.56 917.384C1137.31 920.584 1138.3 929.791 1132.37 934.347L899.588 1113.43C893.665 1117.99 885.019 1114.67 883.658 1107.32L824.917 790.132Z" fill="#EDE0DE" fill-opacity="0.11"/>
<path d="M429.316 108.041C437.073 110.567 438.705 120.818 432.115 125.628L171.544 315.796C165.508 320.201 156.948 316.67 155.774 309.29L109.611 19.242C108.437 11.8617 115.477 5.84776 122.583 8.16161L429.316 108.041Z" fill="#EDE0DE" fill-opacity="0.11"/>
<path d="M950.809 26.875C957.582 23.2153 965.776 28.2593 965.559 35.9542L960.706 208.225C960.49 215.92 952.024 220.495 945.468 216.459L798.704 126.121C792.149 122.086 792.42 112.467 799.192 108.807L950.809 26.875Z" fill="#EDE0DE" fill-opacity="0.11"/>
</svg>
