<svg width="293" height="268" viewBox="0 0 293 268" fill="none" xmlns="http://www.w3.org/2000/svg">
<mask id="mask0_643_1080" style="mask-type:alpha" maskUnits="userSpaceOnUse" x="0" y="0" width="293" height="268">
<rect width="293" height="267.283" fill="#D9D9D9"/>
</mask>
<g mask="url(#mask0_643_1080)">
<path d="M85.0721 243.412V221.139H133.905V186.615C123.935 184.573 115.033 180.721 107.2 175.06C99.366 169.399 93.6179 162.299 89.9554 153.761C74.695 152.09 61.9271 146.012 51.6518 135.524C41.3764 125.037 36.2388 112.74 36.2388 98.6338V87.4969C36.2388 81.3717 38.6296 76.1281 43.4112 71.7662C48.1928 67.4043 53.9409 65.2233 60.6554 65.2233H85.0721V42.9497H207.155V65.2233H231.572C238.287 65.2233 244.035 67.4043 248.816 71.7662C253.598 76.1281 255.989 81.3717 255.989 87.4969V98.6338C255.989 112.74 250.851 125.037 240.576 135.524C230.3 146.012 217.533 152.09 202.272 153.761C198.61 162.299 192.862 169.399 185.028 175.06C177.194 180.721 168.292 184.573 158.322 186.615V221.139H207.155V243.412H85.0721ZM85.0721 129.817V87.4969H60.6554V98.6338C60.6554 105.687 62.8936 112.044 67.37 117.706C71.8464 123.367 77.7471 127.404 85.0721 129.817ZM146.114 165.455C156.287 165.455 164.935 162.206 172.056 155.71C179.178 149.213 182.739 141.325 182.739 132.044V65.2233H109.489V132.044C109.489 141.325 113.05 149.213 120.171 155.71C127.293 162.206 135.94 165.455 146.114 165.455ZM207.155 129.817C214.48 127.404 220.381 123.367 224.858 117.706C229.334 112.044 231.572 105.687 231.572 98.6338V87.4969H207.155V129.817Z" fill="#EDE0DE"/>
</g>
</svg>
