<svg width="220" height="201" viewBox="0 0 220 201" fill="none" xmlns="http://www.w3.org/2000/svg">
<path d="M49.0726 200.562V178.282H97.9059V143.748C87.9358 141.705 79.0339 137.853 71.2002 132.19C63.3665 126.527 57.6184 119.425 53.9559 110.884C38.6955 109.213 25.9276 103.133 15.6523 92.6424C5.37693 82.1522 0.239258 69.8517 0.239258 55.7409V44.6008C0.239258 38.4738 2.63006 33.2287 7.41165 28.8655C12.1933 24.5023 17.9413 22.3207 24.6559 22.3207H49.0726V0.0405273H171.156V22.3207H195.573C202.287 22.3207 208.035 24.5023 212.817 28.8655C217.598 33.2287 219.989 38.4738 219.989 44.6008V55.7409C219.989 69.8517 214.852 82.1522 204.576 92.6424C194.301 103.133 181.533 109.213 166.273 110.884C162.61 119.425 156.862 126.527 149.028 132.19C141.195 137.853 132.293 141.705 122.323 143.748V178.282H171.156V200.562H49.0726ZM49.0726 86.9331V44.6008H24.6559V55.7409C24.6559 62.7963 26.8941 69.1554 31.3705 74.8183C35.8469 80.4812 41.7476 84.5195 49.0726 86.9331ZM110.114 122.581C120.288 122.581 128.935 119.332 136.057 112.834C143.178 106.335 146.739 98.4446 146.739 89.1612V22.3207H73.4893V89.1612C73.4893 98.4446 77.05 106.335 84.1715 112.834C91.2931 119.332 99.9406 122.581 110.114 122.581ZM171.156 86.9331C178.481 84.5195 184.382 80.4812 188.858 74.8183C193.334 69.1554 195.573 62.7963 195.573 55.7409V44.6008H171.156V86.9331Z" fill="#410001"/>
</svg>
