<svg xmlns="http://www.w3.org/2000/svg" width="28" height="28" viewBox="0 0 28 28" fill="none">
  <path d="M14 1.68C7.20247 1.68 1.67999 7.20248 1.67999 14C1.67999 20.1707 6.23141 25.2775 12.1592 26.168L12.8023 26.2653V16.5572H9.89187V14.5863H12.8023V11.9689C12.8023 10.3572 13.1891 9.29567 13.8294 8.62969C14.4696 7.9637 15.4157 7.62781 16.7322 7.62781C17.7849 7.62781 18.1944 7.6916 18.5839 7.73937V9.35266H17.2134C16.4358 9.35266 15.7978 9.78651 15.4667 10.3644C15.1356 10.9422 15.0325 11.6322 15.0325 12.3353V14.5852H18.4614L18.1562 16.5561H15.0325V26.2806L15.668 26.1942C21.68 25.3788 26.32 20.231 26.32 14C26.32 7.20248 20.7975 1.68 14 1.68ZM14 2.8C20.1922 2.8 25.2 7.80777 25.2 14C25.2 19.4487 21.3 23.9298 16.1525 24.9386V17.6761H19.1166L19.7673 13.4652H16.1525V12.3353C16.1525 11.7543 16.2588 11.2338 16.438 10.9211C16.6171 10.6084 16.7898 10.4727 17.2134 10.4727H19.7039V6.72547L19.2183 6.65984C18.8824 6.61439 18.1155 6.50781 16.7322 6.50781C15.2184 6.50781 13.9191 6.92017 13.0222 7.85313C12.1253 8.78608 11.6823 10.1753 11.6823 11.9689V13.4663H8.77187V17.6772H11.6823V24.9036C6.61751 23.8307 2.79999 19.3897 2.79999 14C2.79999 7.80777 7.80776 2.8 14 2.8Z" fill="#410001"/>
</svg>