<svg width="299" height="150" viewBox="0 0 299 150" fill="none" xmlns="http://www.w3.org/2000/svg">
<path d="M0.625977 149.97V130.417C0.625977 121.52 5.17662 114.278 14.2779 108.691C23.3792 103.105 35.3764 100.312 50.2694 100.312C52.9584 100.312 55.544 100.363 58.0262 100.467C60.5084 100.57 62.8871 100.829 65.1624 101.243C62.2666 105.588 60.0947 110.14 58.6467 114.899C57.1988 119.658 56.4748 124.623 56.4748 129.796V149.97H0.625977ZM75.0911 149.97V129.796C75.0911 123.175 76.901 117.123 80.5209 111.64C84.1407 106.157 89.2602 101.346 95.8793 97.208C102.498 93.0698 110.41 89.9662 119.615 87.8971C128.82 85.828 138.8 84.7935 149.556 84.7935C160.519 84.7935 170.603 85.828 179.808 87.8971C189.012 89.9662 196.924 93.0698 203.543 97.208C210.163 101.346 215.23 106.157 218.747 111.64C222.263 117.123 224.021 123.175 224.021 129.796V149.97H75.0911ZM242.638 149.97V129.796C242.638 124.416 241.965 119.347 240.621 114.588C239.276 109.829 237.26 105.381 234.571 101.243C236.846 100.829 239.173 100.57 241.552 100.467C243.93 100.363 246.361 100.312 248.843 100.312C263.736 100.312 275.733 103.053 284.835 108.536C293.936 114.019 298.487 121.313 298.487 130.417V149.97H242.638ZM101.464 125.141H197.959C195.89 121.002 190.15 117.382 180.739 114.278C171.327 111.174 160.933 109.622 149.556 109.622C138.18 109.622 127.786 111.174 118.374 114.278C108.962 117.382 103.326 121.002 101.464 125.141ZM50.2694 87.8971C43.4434 87.8971 37.6 85.4659 32.7391 80.6036C27.8781 75.7412 25.4477 69.8961 25.4477 63.0681C25.4477 56.0332 27.8781 50.1363 32.7391 45.3774C37.6 40.6185 43.4434 38.2391 50.2694 38.2391C57.3022 38.2391 63.1974 40.6185 67.9549 45.3774C72.7124 50.1363 75.0911 56.0332 75.0911 63.0681C75.0911 69.8961 72.7124 75.7412 67.9549 80.6036C63.1974 85.4659 57.3022 87.8971 50.2694 87.8971ZM248.843 87.8971C242.017 87.8971 236.174 85.4659 231.313 80.6036C226.452 75.7412 224.021 69.8961 224.021 63.0681C224.021 56.0332 226.452 50.1363 231.313 45.3774C236.174 40.6185 242.017 38.2391 248.843 38.2391C255.876 38.2391 261.771 40.6185 266.529 45.3774C271.286 50.1363 273.665 56.0332 273.665 63.0681C273.665 69.8961 271.286 75.7412 266.529 80.6036C261.771 85.4659 255.876 87.8971 248.843 87.8971ZM149.556 75.4826C139.214 75.4826 130.423 71.8617 123.183 64.6199C115.944 57.3781 112.324 48.5845 112.324 38.2391C112.324 27.6868 115.944 18.8414 123.183 11.7031C130.423 4.56477 139.214 0.995605 149.556 0.995605C160.105 0.995605 168.948 4.56477 176.084 11.7031C183.221 18.8414 186.789 27.6868 186.789 38.2391C186.789 48.5845 183.221 57.3781 176.084 64.6199C168.948 71.8617 160.105 75.4826 149.556 75.4826ZM149.556 50.6536C153.073 50.6536 156.02 49.4639 158.399 47.0844C160.778 44.705 161.967 41.7565 161.967 38.2391C161.967 34.7217 160.778 31.7732 158.399 29.3938C156.02 27.0143 153.073 25.8246 149.556 25.8246C146.04 25.8246 143.092 27.0143 140.714 29.3938C138.335 31.7732 137.145 34.7217 137.145 38.2391C137.145 41.7565 138.335 44.705 140.714 47.0844C143.092 49.4639 146.04 50.6536 149.556 50.6536Z" fill="#251A00"/>
</svg>
