<svg width="299" height="299" viewBox="0 0 299 299" fill="none" xmlns="http://www.w3.org/2000/svg">
<mask id="mask0_643_1094" style="mask-type:alpha" maskUnits="userSpaceOnUse" x="0" y="0" width="299" height="299">
<rect x="0.625977" y="0.432129" width="297.861" height="297.861" fill="#D9D9D9"/>
</mask>
<g mask="url(#mask0_643_1094)">
<path d="M0.625977 223.827V204.28C0.625977 195.386 5.17662 188.146 14.2779 182.561C23.3792 176.976 35.3764 174.184 50.2694 174.184C52.9584 174.184 55.544 174.236 58.0262 174.339C60.5084 174.442 62.8871 174.701 65.1624 175.115C62.2666 179.458 60.0947 184.009 58.6467 188.767C57.1988 193.524 56.4748 198.488 56.4748 203.66V223.827H0.625977ZM75.0911 223.827V203.66C75.0911 197.04 76.901 190.99 80.5209 185.509C84.1407 180.027 89.2602 175.218 95.8793 171.081C102.498 166.944 110.41 163.841 119.615 161.773C128.82 159.704 138.8 158.67 149.556 158.67C160.519 158.67 170.603 159.704 179.808 161.773C189.012 163.841 196.924 166.944 203.543 171.081C210.163 175.218 215.23 180.027 218.747 185.509C222.263 190.99 224.021 197.04 224.021 203.66V223.827H75.0911ZM242.638 223.827V203.66C242.638 198.282 241.965 193.214 240.621 188.456C239.276 183.699 237.26 179.252 234.571 175.115C236.846 174.701 239.173 174.442 241.552 174.339C243.93 174.236 246.361 174.184 248.843 174.184C263.736 174.184 275.733 176.925 284.835 182.406C293.936 187.887 298.487 195.179 298.487 204.28V223.827H242.638ZM101.464 199.006H197.959C195.89 194.869 190.15 191.249 180.739 188.146C171.327 185.043 160.933 183.492 149.556 183.492C138.18 183.492 127.786 185.043 118.374 188.146C108.962 191.249 103.326 194.869 101.464 199.006ZM50.2694 161.773C43.4434 161.773 37.6 159.342 32.7391 154.482C27.8781 149.621 25.4477 143.777 25.4477 136.951C25.4477 129.918 27.8781 124.023 32.7391 119.266C37.6 114.508 43.4434 112.13 50.2694 112.13C57.3022 112.13 63.1974 114.508 67.9549 119.266C72.7124 124.023 75.0911 129.918 75.0911 136.951C75.0911 143.777 72.7124 149.621 67.9549 154.482C63.1974 159.342 57.3022 161.773 50.2694 161.773ZM248.843 161.773C242.017 161.773 236.174 159.342 231.313 154.482C226.452 149.621 224.021 143.777 224.021 136.951C224.021 129.918 226.452 124.023 231.313 119.266C236.174 114.508 242.017 112.13 248.843 112.13C255.876 112.13 261.771 114.508 266.529 119.266C271.286 124.023 273.665 129.918 273.665 136.951C273.665 143.777 271.286 149.621 266.529 154.482C261.771 159.342 255.876 161.773 248.843 161.773ZM149.556 149.362C139.214 149.362 130.423 145.742 123.183 138.503C115.944 131.263 112.324 122.472 112.324 112.13C112.324 101.58 115.944 92.7376 123.183 85.6013C130.423 78.4651 139.214 74.897 149.556 74.897C160.105 74.897 168.948 78.4651 176.084 85.6013C183.221 92.7376 186.789 101.58 186.789 112.13C186.789 122.472 183.221 131.263 176.084 138.503C168.948 145.742 160.105 149.362 149.556 149.362ZM149.556 124.54C153.073 124.54 156.02 123.351 158.399 120.972C160.778 118.594 161.967 115.646 161.967 112.13C161.967 108.613 160.778 105.666 158.399 103.287C156.02 100.908 153.073 99.7187 149.556 99.7187C146.04 99.7187 143.092 100.908 140.714 103.287C138.335 105.666 137.145 108.613 137.145 112.13C137.145 115.646 138.335 118.594 140.714 120.972C143.092 123.351 146.04 124.54 149.556 124.54Z" fill="#EDE0DE"/>
</g>
</svg>
