<svg width="1416" height="1144" viewBox="0 0 1416 1144" fill="none" xmlns="http://www.w3.org/2000/svg">
<g clip-path="url(#clip0_322_1127)">
<path d="M1399.48 1418.2C1366.07 1405.33 1327.6 1476.94 1298.13 1452.44C1261.73 1422.18 1321.88 1385.57 1335.88 1378.11C1227.13 1336.45 1145.07 1354.9 1080.05 1271.87C975.804 1138.76 1009.43 968.329 1035.67 890.175C1037.38 884.486 1029.55 881.416 1027.18 886.878C985.96 982.163 979.465 1107.73 1028.2 1218.31C1035.87 1235.71 1026.4 1250.6 1022.62 1254.39C1015.62 1261.42 1007.76 1248 1003.71 1241.54C947.613 1152.11 917.527 1099.66 899.06 1043.04C865.984 950.87 887.228 854.06 903.616 769.994C906.621 712.629 859.055 611.877 834.978 534.281C757.652 285.104 850.555 199.382 946.806 105.558C949.782 101.675 952.829 97.8767 955.95 94.1691C971.306 75.9235 988.445 59.8896 1007.76 46.9534C1017.95 49.9549 994.864 66.0107 1003.58 76.6719C1055.33 61.4008 1071.42 49.9996 1163.31 63.2001C1259.44 77.008 1369.87 151.008 1467.35 298.549C1532.3 396.843 1577.02 388.167 1603.23 395.908C1663.15 413.612 1718.18 410.255 1791.78 464.989C1859.17 515.113 1892.83 574.403 1946.69 670.02C1970.74 717.706 1955.55 756.765 1933.83 725.073C1848.1 576.793 1771.62 557.665 1649.43 528.586C1639.96 527.189 1641.57 532.992 1647.66 537.521C1711.18 548.386 1781.59 572.945 1840.94 621.337C1908.56 676.483 1945.82 741.922 1941.83 870.331C1939.96 930.271 1927.33 993.205 1921.6 1021.73C1922.93 1036.06 1939.46 1030.93 1975.01 1012.59C2016.54 991.161 2034.75 989.987 2038.97 1016.27C2036.76 1027.93 2036.13 1028.52 2003.65 1049.06C1978.12 1065.2 1968.89 1071.94 1964.23 1078.28C1954.71 1091.2 1974.46 1103.42 1959.69 1113.38C1913.45 1144.57 1911.66 1132.4 1874.85 1140.11C1845.26 1146.31 1814.85 1160.66 1802.22 1179.51C1762.16 1239.32 1747.27 1220.48 1735.25 1192.05C1727.46 1173.61 1674.74 1196.1 1654 1209.75C1633.59 1223.17 1576.47 1263.55 1598.13 1279.86C1630.79 1304.44 1574.78 1323.62 1565.06 1324.06C1520.03 1326.09 1474.33 1348.63 1458.07 1387.55C1445.36 1417.99 1420.34 1426.26 1399.52 1418.25L1399.48 1418.2ZM1637.06 1181.45C1693.9 1155.68 1750.47 1154.32 1795.68 1116.46C1838.99 1073.94 1830.02 1053.55 1876.49 1037.24C1921.56 1021.68 1887.89 972.3 1898.12 927.185C1902.3 793.613 1881.65 702.878 1752.31 625.466C1661.43 571.071 1578.66 590.246 1493.65 589.824C1441.44 589.567 1452.07 572.939 1477.79 527.578C1514.87 462.181 1503.28 428.627 1458.43 397.015C1424.53 373.114 1394.07 373.026 1376.36 344.357C1284.86 196.271 1198.6 124.086 1124.58 175.219C1044.87 230.31 1131.99 380.713 1155.54 420.637C1182.67 414.096 1259.61 426.339 1271.69 442.904C1278.14 454.206 1277.44 456.649 1260.18 482.849C1251.64 495.827 1243.82 510.323 1242.8 515.064C1240.26 526.98 1227.89 540.002 1214.71 544.635C1208.66 546.764 1191.8 548.766 1177.25 549.085C1162.69 549.403 1145.15 551.423 1138.26 553.575C1118.94 559.608 1100.12 555.99 1093.79 545.025C1089.48 537.569 1089.8 532.351 1095.6 515.025C1105.86 487.398 1126.76 455.057 1140.98 429.43C1084.42 341.886 1011.55 273.856 941.171 307.016C905.683 323.736 827.17 378.796 945.588 582.762C984.6 649.958 952.441 682.649 970.086 719.979C1000.99 785.355 1053.48 799.069 1096.65 788.019C1115.55 783.155 1122.12 796.27 1118.07 810.976C1091.77 906.495 1034.66 967.955 1073.18 1127.13C1104.81 1266.39 1168.02 1292.95 1260.54 1304.36C1390.76 1320.4 1340.67 1360.28 1382.63 1342.02C1391.5 1338.16 1416.24 1316.51 1431.95 1312.46C1459.18 1305.42 1460.4 1316.55 1517.85 1288.16C1573.68 1260.58 1601.53 1197.56 1637.06 1181.46L1637.06 1181.45ZM1048.15 516.192C1022.82 510.811 994.331 469.316 997.461 442.371C998.82 430.684 1015.8 422.201 1023.01 426.497C1014.5 446.726 1044.76 484.317 1037.52 429.088C1058.89 444.995 1074.25 477.424 1074.49 494.396C1074.61 513.189 1066.31 520.053 1048.15 516.192ZM1225.38 384.499C1208.5 372.14 1192.98 342.795 1189.62 327.58C1186.19 312.029 1186.61 304.078 1197.08 294.292C1203.55 288.243 1212.52 290.584 1212.52 290.584C1209.34 310.393 1222 349.392 1227.88 290.561C1237.36 292.832 1257.97 325.173 1260.19 363.062C1262.42 400.951 1242.27 396.858 1225.38 384.499L1225.38 384.499ZM1217.87 504.725C1236.05 467.385 1251.01 457.684 1214.27 447.386C1167.9 437.752 1157.67 435.226 1138.35 473.097C1123.94 501.355 1115.06 512.42 1120.71 522.214C1138.19 536.319 1154.24 522.565 1176.85 523.266C1206.92 524.448 1210.77 522.709 1217.87 504.725Z" fill="#201A19"/>
</g>
<defs>
<clipPath id="clip0_322_1127">
<rect width="1671" height="2362" fill="white" transform="translate(0 73.5) rotate(-30)"/>
</clipPath>
</defs>
</svg>
