<svg width="1260" height="1144" viewBox="0 0 1260 1144" fill="none" xmlns="http://www.w3.org/2000/svg">
<path d="M824.918 790.132C823.432 782.111 831.66 775.782 839.032 779.274L1130.56 917.384C1137.31 920.584 1138.3 929.791 1132.37 934.347L899.589 1113.43C893.665 1117.99 885.019 1114.67 883.658 1107.32L824.918 790.132Z" fill="#FFF2F0"/>
<path d="M429.316 108.041C437.073 110.567 438.705 120.818 432.115 125.627L171.544 315.796C165.508 320.201 156.948 316.67 155.774 309.29L109.611 19.242C108.437 11.8617 115.477 5.84777 122.583 8.16161L429.316 108.041Z" fill="#FFF2F0"/>
<path d="M1142.81 41.875C1149.58 38.2153 1157.78 43.2593 1157.56 50.9542L1152.71 223.225C1152.49 230.92 1144.02 235.495 1137.47 231.459L990.705 141.121C984.149 137.086 984.42 127.467 991.192 123.807L1142.81 41.875Z" fill="#FFF2F0"/>
</svg>
