<svg width="19" height="23" viewBox="0 0 19 23" fill="none" xmlns="http://www.w3.org/2000/svg">
<path d="M9.65547 11.4454C10.2717 11.4454 10.7993 11.226 11.2381 10.7872C11.6769 10.3483 11.8964 9.8208 11.8964 9.20455C11.8964 8.58831 11.6769 8.06076 11.2381 7.62192C10.7993 7.18308 10.2717 6.96366 9.65547 6.96366C9.03922 6.96366 8.51167 7.18308 8.07283 7.62192C7.63399 8.06076 7.41457 8.58831 7.41457 9.20455C7.41457 9.8208 7.63399 10.3483 8.07283 10.7872C8.51167 11.226 9.03922 11.4454 9.65547 11.4454ZM9.65547 19.6807C11.9337 17.5892 13.6237 15.6891 14.7255 13.9805C15.8273 12.2718 16.3782 10.7545 16.3782 9.42864C16.3782 7.39316 15.7292 5.72649 14.4314 4.42864C13.1335 3.13079 11.5416 2.48186 9.65547 2.48186C7.76938 2.48186 6.17741 3.13079 4.87955 4.42864C3.5817 5.72649 2.93278 7.39316 2.93278 9.42864C2.93278 10.7545 3.48366 12.2718 4.58544 13.9805C5.68721 15.6891 7.37722 17.5892 9.65547 19.6807ZM9.65547 22.6499C6.64893 20.0916 4.40336 17.7153 2.91877 15.5211C1.43418 13.3269 0.691879 11.2961 0.691879 9.42864C0.691879 6.62752 1.59291 4.39596 3.39496 2.73396C5.19702 1.07197 7.28385 0.240967 9.65547 0.240967C12.0271 0.240967 14.1139 1.07197 15.916 2.73396C17.718 4.39596 18.6191 6.62752 18.6191 9.42864C18.6191 11.2961 17.8768 13.3269 16.3922 15.5211C14.9076 17.7153 12.662 20.0916 9.65547 22.6499Z" fill="#410001"/>
</svg>
