<svg width="610" height="1098" viewBox="0 0 610 1098" fill="none" xmlns="http://www.w3.org/2000/svg">
<path d="M593.481 1372.2C560.074 1359.33 521.601 1430.94 492.125 1406.44C455.73 1376.18 515.881 1339.57 529.876 1332.11C421.128 1290.45 339.069 1308.9 274.046 1225.87C169.804 1092.76 203.431 922.329 229.67 844.175C231.377 838.486 223.548 835.416 221.185 840.878C179.96 936.163 173.465 1061.73 222.205 1172.31C229.872 1189.71 220.398 1204.6 216.623 1208.39C209.623 1215.42 201.761 1202 197.713 1195.54C141.613 1106.11 111.527 1053.66 93.06 997.042C59.9836 904.87 81.2284 808.06 97.6161 723.994C100.621 666.629 53.0547 565.877 28.9782 488.281C-48.3477 239.104 44.5547 153.382 140.806 59.5579C143.782 55.6752 146.829 51.8767 149.95 48.1691C165.306 29.9235 182.445 13.8896 201.763 0.953369C211.948 3.9549 188.864 20.0107 197.58 30.6719C249.33 15.4008 265.417 3.99955 357.311 17.2001C453.443 31.008 563.872 105.008 661.352 252.549C726.296 350.843 771.022 342.167 797.229 349.908C857.153 367.612 912.179 364.255 985.775 418.989C1053.17 469.113 1086.83 528.403 1140.69 624.02C1164.74 671.706 1149.55 710.765 1127.83 679.073C1042.1 530.793 965.617 511.665 843.427 482.586C833.963 481.189 835.572 486.992 841.661 491.521C905.182 502.386 975.592 526.945 1034.94 575.337C1102.56 630.483 1139.82 695.922 1135.83 824.331C1133.96 884.271 1121.33 947.205 1115.6 975.727C1116.93 990.057 1133.46 984.925 1169.01 966.587C1210.54 945.161 1228.75 943.987 1232.97 970.272C1230.76 981.927 1230.13 982.515 1197.65 1003.06C1172.12 1019.2 1162.89 1025.94 1158.23 1032.28C1148.71 1045.2 1168.46 1057.42 1153.69 1067.38C1107.45 1098.57 1105.66 1086.4 1068.85 1094.11C1039.26 1100.31 1008.85 1114.66 996.221 1133.51C956.159 1193.32 941.265 1174.48 929.253 1146.05C921.464 1127.61 868.739 1150.1 847.999 1163.75C827.595 1177.17 770.467 1217.55 792.134 1233.86C824.795 1258.44 768.779 1277.62 759.062 1278.06C714.031 1280.09 668.329 1302.63 652.073 1341.55C639.359 1371.99 614.34 1380.26 593.518 1372.25L593.481 1372.2ZM831.057 1135.45C887.9 1109.68 944.467 1108.32 989.682 1070.46C1032.99 1027.94 1024.02 1007.55 1070.49 991.235C1115.56 975.678 1081.89 926.3 1092.12 881.185C1096.3 747.613 1075.65 656.878 946.311 579.466C855.429 525.071 772.663 544.246 687.654 543.824C635.436 543.567 646.07 526.939 671.789 481.578C708.869 416.181 697.278 382.627 652.434 351.015C618.529 327.114 588.068 327.026 570.358 298.357C478.863 150.271 392.6 78.0862 318.58 129.219C238.868 184.31 325.994 334.713 349.536 374.637C376.667 368.096 453.612 380.339 465.693 396.904C472.14 408.206 471.435 410.649 454.185 436.849C445.64 449.827 437.82 464.323 436.805 469.064C434.255 480.98 421.885 494.002 408.714 498.635C402.662 500.764 385.803 502.766 371.248 503.085C356.693 503.403 339.15 505.423 332.263 507.575C312.942 513.608 294.12 509.99 287.79 499.025C283.485 491.569 283.8 486.351 289.605 469.025C299.863 441.398 320.756 409.057 334.982 383.43C278.416 295.886 205.552 227.856 135.171 261.016C99.683 277.736 21.1698 332.796 139.588 536.762C178.6 603.958 146.441 636.649 164.086 673.979C194.987 739.355 247.483 753.069 290.655 742.019C309.55 737.155 316.116 750.27 312.068 764.976C285.769 860.495 228.664 921.955 267.182 1081.13C298.815 1220.39 362.019 1246.95 454.543 1258.36C584.763 1274.4 534.673 1314.28 576.629 1296.02C585.505 1292.16 610.244 1270.51 625.946 1266.46C653.183 1259.42 654.396 1270.55 711.848 1242.16C767.685 1214.58 795.529 1151.56 831.057 1135.46L831.057 1135.45ZM242.148 470.192C216.823 464.811 188.331 423.316 191.461 396.371C192.82 384.684 209.795 376.201 217.013 380.497C208.499 400.726 238.759 438.317 231.523 383.088C252.892 398.995 268.25 431.424 268.486 448.396C268.607 467.189 260.315 474.053 242.148 470.192ZM419.382 338.499C402.497 326.14 386.983 296.795 383.625 281.58C380.193 266.029 380.614 258.078 391.081 248.292C397.552 242.243 406.516 244.584 406.516 244.584C403.341 264.393 415.997 303.392 421.881 244.561C431.357 246.832 451.965 279.173 454.195 317.062C456.424 354.951 436.265 350.858 419.38 338.499L419.382 338.499ZM411.868 458.725C430.046 421.385 445.009 411.684 408.27 401.386C361.9 391.752 351.672 389.226 332.354 427.097C317.94 455.355 309.06 466.42 314.715 476.214C332.187 490.319 348.236 476.565 370.848 477.266C400.923 478.448 404.768 476.709 411.868 458.725Z" fill="#201A19"/>
</svg>
